<?xml version="1.0" encoding="UTF-8"?>
<svg width="724px" height="366px" viewBox="0 0 724 366" version="1.1" xmlns="http://www.w3.org/2000/svg" xmlns:xlink="http://www.w3.org/1999/xlink">
    <!-- Generator: Sketch 52.2 (67145) - http://www.bohemiancoding.com/sketch -->
    <title>Group 48</title>
    <desc>Created with Sketch.</desc>
    <defs>
        <polygon id="path-1" points="0 367 724 367 724 0 0 0"></polygon>
    </defs>
    <g id="Page-1" stroke="none" stroke-width="1" fill="none" fill-rule="evenodd">
        <g id="Students" transform="translate(-179.000000, -2062.000000)">
            <g id="Group-48" transform="translate(179.000000, 2062.000000)">
                <path d="M451.610136,186 C443.342724,186 432.000424,185.212143 419.734519,182.053643 C405.596867,178.413085 393.207764,172.356936 382.911508,164.053122 C370.025061,153.660727 360.432828,139.73257 354.401445,122.655761 C348.166165,105.002706 339.428475,90.2629547 328.430978,78.8460932 C319.671786,69.7531584 309.458251,62.7270867 298.073705,57.9625697 C278.712159,49.860012 262.59221,51.1256342 262.431572,51.1387652 L262,46.1068312 C262.706301,46.0469843 279.532045,44.7270707 300.029693,53.3051204 C312.05502,58.3373069 322.83749,65.7530146 332.077837,75.3456832 C343.579763,87.2860154 352.6959,102.638376 359.173022,120.976514 C364.876047,137.123298 373.906679,150.27395 386.01397,160.062573 C395.719281,167.90933 407.434716,173.648568 420.835205,177.121201 C443.832732,183.080635 464.066782,180.254197 464.268402,180.224652 L465,185.221991 C464.580824,185.283353 459.493283,186 451.610136,186" id="Fill-1" fill="#4545A8"></path>
                <path d="M451.610625,320 C443.343203,320 432.000383,319.212146 419.734716,316.05366 C405.596793,312.413118 393.207928,306.356995 382.911659,298.053216 C370.025195,287.660866 360.432951,273.732517 354.401307,256.656034 C348.188028,239.064668 339.488779,224.364878 328.545404,212.965742 C319.819594,203.876129 309.64374,196.841755 298.300414,192.058319 C278.912788,183.882567 262.590946,185.125962 262.428537,185.139345 L262,180.10718 C262.705796,180.046576 279.531814,178.727173 300.02974,187.305691 C312.054829,192.337856 322.837566,199.753532 332.077925,209.346159 C343.579865,221.28644 352.696013,236.638735 359.17289,254.976794 C364.876175,271.123255 373.906819,284.273852 386.014124,294.062432 C395.719448,301.909155 407.434897,307.648621 420.835403,311.121239 C443.832959,317.080395 464.067034,314.253969 464.268654,314.224677 L465,319.221994 C464.581076,319.283103 459.493782,319.999747 451.610625,320" id="Fill-3" fill="#A1D182"></path>
                <path d="M274.389864,185 C266.5052,185 261.419176,184.283354 261,184.221993 L261.732863,179.224918 C261.933218,179.253957 282.167268,182.080894 305.164795,176.121221 C318.565284,172.648596 330.280719,166.909371 339.98603,159.062632 C352.093321,149.274032 361.123953,136.123409 366.826978,119.976662 C373.3041,101.638566 382.420237,86.28624 393.922163,74.345935 C403.16251,64.7532881 413.945233,57.3375974 425.970307,52.3054224 C446.467702,43.7273921 463.293952,45.0465452 464,45.1071495 L463.571464,50.1393245 C463.570705,50.1393245 463.569693,50.139072 463.568428,50.139072 C463.271185,50.1155878 447.005523,48.9168858 427.699631,57.0583127 C416.356319,61.8417577 406.180478,68.875894 397.454679,77.9655254 C386.511317,89.3649372 377.81208,104.064504 371.598555,121.655906 C365.567172,138.732675 355.974939,152.660801 343.088492,163.053171 C332.792236,171.356967 320.403133,177.413102 306.265481,181.053652 C294.001094,184.211639 282.657023,185 274.389864,185" id="Fill-5" fill="#FF5F8D"></path>
                <path d="M269.912591,329 C265.712635,329 263.173243,328.604141 263,328.576171 L263.801913,323.600594 L263.400957,326.088383 L263.79813,323.60009 C263.863443,323.610169 270.447704,324.615565 280.033086,323.194404 C288.835721,321.889404 302.062746,318.207487 315.08778,308.076923 C326.532945,299.174756 336.088066,286.717922 343.487353,271.052387 C352.518709,251.931212 358.418318,227.831183 361.022013,199.421557 C363.985813,167.079799 371.156882,138.852354 382.335751,115.523886 C391.323734,96.767828 402.907846,81.1141358 416.766567,68.9979771 C440.489827,48.2578366 462.409287,45.1234697 463.33073,45 L464,49.9952319 C463.790443,50.0237055 442.431062,53.139678 419.828463,73.0180502 C406.544698,84.7008051 395.423325,99.8122384 386.773508,117.932805 C375.917926,140.674163 368.943552,168.245454 366.044309,199.881167 C363.382865,228.921748 357.314552,253.620227 348.007318,273.28996 C340.250701,289.683211 330.182658,302.752102 318.082598,312.133533 C304.132337,322.949732 289.955373,326.849863 280.519025,328.216849 C276.367739,328.818071 272.758626,329 269.912591,329" id="Fill-7" fill="#FFD30F"></path>
                <path d="M253.917277,91.6241438 C259.462623,91.6241438 264,87.0887202 264,81.5452001 L264,10.0786912 C264,4.53542366 257.946122,0 252.400524,0 L10.0824702,0 C4.53712422,0 0,4.53542366 0,10.0786912 L0,82.5558218 L0,81.5452001 C0,86.3702747 2.67629699,91.8079851 6.94968192,94.0512016 L14.4710516,98" id="Fill-9" fill="#83ABC9"></path>
                <path d="M250.96228,97 L18.037469,97 C12.5168736,97 8,92.4954717 8,86.9897141 L8,16.0100351 C8,10.5045283 12.5168736,6 18.037469,6 L250.96228,6 C256.482875,6 261,10.5045283 261,16.0100351 L261,86.9897141 C261,92.4954717 256.482875,97 250.96228,97" id="Fill-11" fill="#FFFFFF"></path>
                <path d="M18.4313786,6.76599273 C13.6548788,6.76599273 9.7689854,10.6476864 9.7689854,15.4190238 L9.7689854,86.5812276 C9.7689854,91.3523136 13.6548788,95.2340073 18.4313786,95.2340073 L251.568621,95.2340073 C256.345121,95.2340073 260.231015,91.3523136 260.231015,86.5812276 L260.231015,15.4190238 C260.231015,10.6476864 256.345121,6.76599273 251.568621,6.76599273 L18.4313786,6.76599273 Z M251.568621,98 L18.4313786,98 C12.128161,98 7,92.8776329 7,86.5812276 L7,15.4190238 C7,9.12261854 12.128161,4 18.4313786,4 L251.568621,4 C257.871839,4 263,9.12261854 263,15.4190238 L263,86.5812276 C263,92.8776329 257.871839,98 251.568621,98 Z" id="Fill-13" fill="#83ABC9"></path>
                <path d="M55,75.1666241 C47.103458,75.1666241 40.1010957,71.3429707 35.6884801,65.4681746 C40.5228785,63.1419782 47.4268249,60.6664962 55,60.6664962 C62.5736864,60.6664962 69.478144,63.1422338 74.3115199,65.4679189 C69.8989043,71.3427151 62.896542,75.1666241 55,75.1666241 M55,30.4584079 C62.6618774,30.4584079 68.895828,36.6923585 68.895828,44.3542359 C68.895828,52.0161133 62.6618774,58.2500639 55,58.2500639 C47.3381226,58.2500639 41.104172,52.0161133 41.104172,44.3539803 C41.104172,36.6921029 47.3381226,30.4584079 55,30.4584079 M55,22 C39.0095728,22 26,35.0095728 26,51 C26,66.9904272 39.0095728,80 55,80 C70.9904272,80 84,66.9904272 84,51 C84,35.0095728 70.9904272,22 55,22" id="Fill-15" fill="#4545A8"></path>
                <mask id="mask-2" fill="white">
                    <use xlink:href="#path-1"></use>
                </mask>
                <g id="Clip-18"></g>
                <polygon id="Fill-17" fill="#83ABC9" mask="url(#mask-2)" points="99 49 224 49 224 35 99 35"></polygon>
                <polygon id="Fill-19" fill="#B6CEDD" mask="url(#mask-2)" points="99 68 185 68 185 54 99 54"></polygon>
                <path d="M253.917277,226.624144 C259.462623,226.624144 264,222.08872 264,216.545453 L264,145.078944 C264,139.535424 257.946122,135 252.400524,135 L10.0824702,135 C4.53712422,135 0,139.535424 0,145.078944 L0,217.556074 L0,216.545453 C0,221.370275 2.67629699,226.808238 6.94968192,229.051454 L14.4710516,233" id="Fill-20" fill="#83ABC9" mask="url(#mask-2)"></path>
                <path d="M250.96228,230 L18.037469,230 C12.5168736,230 8,225.495472 8,219.989965 L8,149.010286 C8,143.504528 12.5168736,139 18.037469,139 L250.96228,139 C256.482875,139 261,143.504528 261,149.010286 L261,219.989965 C261,225.495472 256.482875,230 250.96228,230" id="Fill-21" fill="#FFFFFF" mask="url(#mask-2)"></path>
                <path d="M18.4313786,140.765993 C13.6548788,140.765993 9.7689854,144.647686 9.7689854,149.419024 L9.7689854,220.581228 C9.7689854,225.352314 13.6548788,229.234007 18.4313786,229.234007 L251.568621,229.234007 C256.345121,229.234007 260.231015,225.352314 260.231015,220.581228 L260.231015,149.419024 C260.231015,144.647686 256.345121,140.765993 251.568621,140.765993 L18.4313786,140.765993 Z M251.568621,232 L18.4313786,232 C12.128161,232 7,226.877633 7,220.581228 L7,149.419024 C7,143.122619 12.128161,138 18.4313786,138 L251.568621,138 C257.871839,138 263,143.122619 263,149.419024 L263,220.581228 C263,226.877633 257.871839,232 251.568621,232 Z" id="Fill-22" fill="#83ABC9" mask="url(#mask-2)"></path>
                <path d="M55,211.166624 C47.103458,211.166624 40.1010957,207.342971 35.6884801,201.468175 C40.5228785,199.141978 47.4268249,196.666752 55,196.666752 C62.5736864,196.666752 69.478144,199.142234 74.3115199,201.467919 C69.8989043,207.342715 62.896542,211.166624 55,211.166624 M55,166.458408 C62.6618774,166.458408 68.895828,172.692359 68.895828,180.354236 C68.895828,188.016369 62.6618774,194.250064 55,194.250064 C47.3381226,194.250064 41.104172,188.016113 41.104172,180.354236 C41.104172,172.692359 47.3381226,166.458408 55,166.458408 M55,158 C39.0095728,158 26,171.009828 26,187 C26,202.990427 39.0095728,216 55,216 C70.9904272,216 84,202.990427 84,187 C84,171.009828 70.9904272,158 55,158" id="Fill-23" fill="#A1D182" mask="url(#mask-2)"></path>
                <polygon id="Fill-24" fill="#83ABC9" mask="url(#mask-2)" points="99 182 224 182 224 168 99 168"></polygon>
                <polygon id="Fill-25" fill="#B6CEDD" mask="url(#mask-2)" points="99 202 185 202 185 188 99 188"></polygon>
                <path d="M253.917277,359.62438 C259.462623,359.62438 264,355.088692 264,349.54541 L264,278.078717 C264,272.535435 257.946122,268 252.400524,268 L10.0824702,268 C4.53712422,268 0,272.535435 0,278.078717 L0,350.556287 L0,349.54541 C0,354.370245 2.67629699,359.808222 6.94968192,362.051444 L14.4710516,366" id="Fill-26" fill="#83ABC9" mask="url(#mask-2)"></path>
                <path d="M250.96228,366 L18.037469,366 C12.5168736,366 8,361.445718 8,355.879711 L8,284.120035 C8,278.554029 12.5168736,274 18.037469,274 L250.96228,274 C256.482875,274 261,278.554029 261,284.120035 L261,355.879711 C261,361.445718 256.482875,366 250.96228,366" id="Fill-27" fill="#FFFFFF" mask="url(#mask-2)"></path>
                <path d="M18.4313786,274.765993 C13.6548788,274.765993 9.7689854,278.647686 9.7689854,283.418772 L9.7689854,354.580976 C9.7689854,359.352314 13.6548788,363.234007 18.4313786,363.234007 L251.568621,363.234007 C256.345121,363.234007 260.231015,359.352314 260.231015,354.580976 L260.231015,283.418772 C260.231015,278.647686 256.345121,274.765993 251.568621,274.765993 L18.4313786,274.765993 Z M251.568621,366 L18.4313786,366 C12.128161,366 7,360.877381 7,354.580976 L7,283.418772 C7,277.122367 12.128161,272 18.4313786,272 L251.568621,272 C257.871839,272 263,277.122367 263,283.418772 L263,354.580976 C263,360.877381 257.871839,366 251.568621,366 Z" id="Fill-28" fill="#83ABC9" mask="url(#mask-2)"></path>
                <path d="M55,344.166624 C47.103458,344.166624 40.1010957,340.342715 35.6884801,334.468175 C40.5228785,332.141978 47.4268249,329.666496 55,329.666496 C62.5736864,329.666496 69.478144,332.142234 74.3115199,334.467919 C69.8989043,340.342715 62.896542,344.166624 55,344.166624 M55,299.458408 C62.6618774,299.458408 68.895828,305.692103 68.895828,313.354236 C68.895828,321.016113 62.6618774,327.249808 55,327.249808 C47.3381226,327.249808 41.104172,321.016113 41.104172,313.35398 C41.104172,305.692103 47.3381226,299.458408 55,299.458408 M55,291 C39.0095728,291 26,304.009573 26,320 C26,335.990427 39.0095728,349 55,349 C70.9904272,349 84,335.990427 84,320 C84,304.009573 70.9904272,291 55,291" id="Fill-29" fill="#FFD30F" mask="url(#mask-2)"></path>
                <polygon id="Fill-30" fill="#83ABC9" mask="url(#mask-2)" points="99 318 224 318 224 304 99 304"></polygon>
                <polygon id="Fill-31" fill="#B6CEDD" mask="url(#mask-2)" points="99 336 185 336 185 322 99 322"></polygon>
                <path d="M713.917277,91.6241438 C719.462876,91.6241438 724,87.0887202 724,81.5452001 L724,10.0786912 C724,4.53542366 717.946122,0 712.400776,0 L470.082723,0 C464.537124,0 460,4.53542366 460,10.0786912 L460,82.5558218 L460,81.5452001 C460,86.3702747 462.67655,91.8079851 466.949682,94.0512016 L474.471304,98" id="Fill-32" fill="#83ABC9" mask="url(#mask-2)"></path>
                <path d="M711.96228,97 L479.03772,97 C473.516874,97 469,92.4954717 469,86.9897141 L469,16.0100351 C469,10.5045283 473.516874,6 479.03772,6 L711.96228,6 C717.483126,6 722,10.5045283 722,16.0100351 L722,86.9897141 C722,92.4954717 717.483126,97 711.96228,97" id="Fill-33" fill="#FFFFFF" mask="url(#mask-2)"></path>
                <path d="M479.431379,6.76599273 C474.654879,6.76599273 470.768985,10.6476864 470.768985,15.4190238 L470.768985,86.5812276 C470.768985,91.3523136 474.654879,95.2340073 479.431379,95.2340073 L712.568621,95.2340073 C717.345121,95.2340073 721.231015,91.3523136 721.231015,86.5812276 L721.231015,15.4190238 C721.231015,10.6476864 717.345121,6.76599273 712.568621,6.76599273 L479.431379,6.76599273 Z M712.568621,98 L479.431379,98 C473.128161,98 468,92.8776329 468,86.5812276 L468,15.4190238 C468,9.12261854 473.128161,4 479.431379,4 L712.568621,4 C718.871839,4 724,9.12261854 724,15.4190238 L724,86.5812276 C724,92.8776329 718.871839,98 712.568621,98 Z" id="Fill-34" fill="#83ABC9" mask="url(#mask-2)"></path>
                <polygon id="Fill-35" fill="#B6CEDD" mask="url(#mask-2)" points="559 55 645 55 645 41 559 41"></polygon>
                <path d="M713.917277,226.624144 C719.462876,226.624144 724,222.08872 724,216.545453 L724,145.078944 C724,139.535424 717.946122,135 712.400776,135 L470.082723,135 C464.537124,135 460,139.535424 460,145.078944 L460,217.556074 L460,216.545453 C460,221.370275 462.67655,226.808238 466.949682,229.051454 L474.471304,233" id="Fill-36" fill="#83ABC9" mask="url(#mask-2)"></path>
                <path d="M711.96228,230 L479.03772,230 C473.516874,230 469,225.495472 469,219.989965 L469,149.010286 C469,143.504528 473.516874,139 479.03772,139 L711.96228,139 C717.483126,139 722,143.504528 722,149.010286 L722,219.989965 C722,225.495472 717.483126,230 711.96228,230" id="Fill-37" fill="#FFFFFF" mask="url(#mask-2)"></path>
                <path d="M479.431379,140.765993 C474.654879,140.765993 470.768985,144.647686 470.768985,149.419024 L470.768985,220.581228 C470.768985,225.352314 474.654879,229.234007 479.431379,229.234007 L712.568621,229.234007 C717.345121,229.234007 721.231015,225.352314 721.231015,220.581228 L721.231015,149.419024 C721.231015,144.647686 717.345121,140.765993 712.568621,140.765993 L479.431379,140.765993 Z M712.568621,232 L479.431379,232 C473.128161,232 468,226.877633 468,220.581228 L468,149.419024 C468,143.122619 473.128161,138 479.431379,138 L712.568621,138 C718.871839,138 724,143.122619 724,149.419024 L724,220.581228 C724,226.877633 718.871839,232 712.568621,232 Z" id="Fill-38" fill="#83ABC9" mask="url(#mask-2)"></path>
                <polygon id="Fill-39" fill="#B6CEDD" mask="url(#mask-2)" points="559 190 645 190 645 176 559 176"></polygon>
                <path d="M713.917277,359.62438 C719.462876,359.62438 724,355.088692 724,349.54541 L724,278.078717 C724,272.535435 717.946122,268 712.400776,268 L470.082723,268 C464.537124,268 460,272.535435 460,278.078717 L460,350.556287 L460,349.54541 C460,354.370245 462.67655,359.808222 466.949682,362.051444 L474.471304,366" id="Fill-40" fill="#83ABC9" mask="url(#mask-2)"></path>
                <path d="M711.96228,366 L479.03772,366 C473.516874,366 469,361.445718 469,355.879711 L469,284.120035 C469,278.554029 473.516874,274 479.03772,274 L711.96228,274 C717.483126,274 722,278.554029 722,284.120035 L722,355.879711 C722,361.445718 717.483126,366 711.96228,366" id="Fill-41" fill="#FFFFFF" mask="url(#mask-2)"></path>
                <path d="M479.431379,274.765993 C474.654879,274.765993 470.768985,278.647686 470.768985,283.418772 L470.768985,354.580976 C470.768985,359.352314 474.654879,363.234007 479.431379,363.234007 L712.568621,363.234007 C717.345121,363.234007 721.231015,359.352314 721.231015,354.580976 L721.231015,283.418772 C721.231015,278.647686 717.345121,274.765993 712.568621,274.765993 L479.431379,274.765993 Z M712.568621,366 L479.431379,366 C473.128161,366 468,360.877381 468,354.580976 L468,283.418772 C468,277.122367 473.128161,272 479.431379,272 L712.568621,272 C718.871839,272 724,277.122367 724,283.418772 L724,354.580976 C724,360.877381 718.871839,366 712.568621,366 Z" id="Fill-42" fill="#83ABC9" mask="url(#mask-2)"></path>
                <polygon id="Fill-43" fill="#B6CEDD" mask="url(#mask-2)" points="559 323 676 323 676 309 559 309"></polygon>
                <path d="M523.027743,184.5 C521.205598,184.5 519.611097,182.90549 519.611097,181.083333 C519.611097,179.261177 521.205598,177.666667 523.027743,177.666667 C524.849889,177.666667 526.444389,179.261177 526.444389,181.083333 C526.444389,182.90549 524.849889,184.5 523.027743,184.5 M516.194451,175.388724 C514.372306,175.388724 512.777805,173.794461 512.777805,171.972305 C512.777805,170.149901 514.372306,168.555391 516.194451,168.555391 C518.016597,168.555391 519.611097,170.149901 519.611097,171.972305 C519.611097,173.794461 518.016597,175.388724 516.194451,175.388724 M504.805549,175.388724 C502.983403,175.388724 501.388903,173.794461 501.388903,171.972305 C501.388903,170.149901 502.983403,168.555391 504.805549,168.555391 C506.627694,168.555391 508.222195,170.149901 508.222195,171.972305 C508.222195,173.794461 506.627694,175.388724 504.805549,175.388724 M497.972257,184.5 C496.150111,184.5 494.555611,182.90549 494.555611,181.083333 C494.555611,179.261177 496.150111,177.666667 497.972257,177.666667 C499.794402,177.666667 501.388903,179.261177 501.388903,181.083333 C501.388903,182.90549 499.794402,184.5 497.972257,184.5 M510.500124,164 C499.111221,164 490,173.111029 490,184.5 C490,195.888724 499.111221,205 510.500124,205 C512.322269,205 513.91677,203.40549 513.91677,201.583333 C513.91677,200.672255 513.688878,199.988823 513.005697,199.305391 C512.550161,198.622206 512.094377,197.939021 512.094377,197.027695 C512.094377,195.205539 513.689125,193.611029 515.511023,193.611029 L519.611097,193.611029 C525.988853,193.611029 531,188.599852 531,182.222057 C531,172.199951 521.888779,164 510.500124,164" id="Fill-44" fill="#FF7700" mask="url(#mask-2)"></path>
                <path d="M510.53889,58.724037 C506.032328,58.724037 502.366573,55.0583694 502.366573,50.5519157 C502.366573,46.0457112 506.032328,42.3797944 510.53889,42.3797944 C515.045203,42.3797944 518.710959,46.0457112 518.710959,50.5519157 C518.710959,55.0583694 515.045203,58.724037 510.53889,58.724037 M534.846763,47.7796144 C534.769261,47.0908377 533.966085,46.5732584 533.27156,46.5732584 C531.026253,46.5732584 529.033886,45.2550135 528.198313,43.2160949 C527.344798,41.1278356 527.895284,38.6924467 529.568673,37.1576509 C530.095236,36.6759557 530.159281,35.8700571 529.717446,35.3101145 C528.568378,33.8508249 527.262063,32.5325801 525.836131,31.3902674 C525.27767,30.9422136 524.458296,31.0045125 523.974097,31.5407815 C522.513526,33.1580611 519.89043,33.759121 517.863424,32.913351 C515.753932,32.0259654 514.423694,29.8886145 514.554027,27.5942704 C514.59664,26.8735967 514.070077,26.2468697 513.351629,26.1631399 C511.521492,25.9515729 509.675158,25.9448446 507.839538,26.1484374 C507.129314,26.226934 506.602502,26.8387093 506.626425,27.550412 C506.706419,29.8223285 505.359982,31.9223 503.271673,32.7777886 C501.26884,33.5958978 498.663935,32.9998219 497.206604,31.3969956 C496.724897,30.8689501 495.91873,30.8039101 495.357528,31.2412484 C493.889232,32.3935289 492.553761,33.7127706 491.393976,35.1598496 C490.941675,35.7225333 491.008212,36.5381506 491.540258,37.0220885 C493.245295,38.5663537 493.796031,41.0229242 492.910119,43.1351063 C492.064329,45.1488562 489.973029,46.4469162 487.579198,46.4469162 C486.802188,46.4219966 486.24896,46.9433139 486.163982,47.6497834 C485.948423,49.4903423 485.945931,51.3657886 486.153267,53.2212992 C486.23027,53.9130663 487.057868,54.4261601 487.759869,54.4261601 C489.893534,54.3715862 491.941971,55.692323 492.801218,57.7835727 C493.657724,59.8715828 493.106988,62.3057257 491.431107,63.8417675 C490.907036,64.3232135 490.8405,65.1281153 491.282334,65.6880579 C492.420687,67.1378781 493.727002,68.4573689 495.158167,69.6091511 C495.719618,70.0616903 496.536252,69.997647 497.022942,69.4616272 C498.488746,67.8403605 501.111843,67.2402975 503.130874,68.0875626 C505.245599,68.972207 506.575837,71.1095579 506.445505,73.405148 C506.40314,74.1263201 506.932445,74.7540439 507.647902,74.8362785 C508.584153,74.9456754 509.526135,75 510.470609,75 C511.366987,75 512.263615,74.9509085 513.159993,74.8512302 C513.870467,74.7727336 514.39703,74.1609583 514.373106,73.4480097 C514.29087,71.1775883 515.639549,69.0773676 517.725117,68.2233742 C519.741407,67.3997827 522.335347,68.0025869 523.792927,69.603918 C524.277375,70.1307175 525.077811,70.1945116 525.642003,69.7584192 C527.107807,68.609129 528.440537,67.2911334 529.605804,65.839818 C530.057856,65.2783803 529.99406,64.4617662 529.459274,63.9778283 C527.753987,62.4335631 527.200759,59.9767434 528.086671,57.8658073 C528.919503,55.8789706 530.933052,54.5447772 533.098863,54.5447772 L533.401892,54.5525022 C534.104392,54.609568 534.750571,54.0683151 534.835798,53.3513793 C535.051607,51.5090761 535.054099,49.635125 534.846763,47.7796144" id="Fill-45" fill="#A1D182" mask="url(#mask-2)"></path>
                <path d="M511.554025,334.369171 L519.445422,334.369171 L519.445422,332.629604 L511.554025,332.629604 L511.554025,334.369171 Z M541.934717,331.089636 C541.884133,331.033062 541.809534,331 541.731358,331 L489.26911,331 C489.190679,331 489.116591,331.032817 489.065496,331.089636 C489.014401,331.145964 488.991408,331.22164 489.002904,331.296336 C489.010569,331.343113 489.801778,336 495.94342,336 L535.056793,336 C541.197924,336 541.989133,331.343113 541.997309,331.296336 C542.008294,331.22164 541.985301,331.145964 541.934717,331.089636 Z" id="Fill-46" fill="#4545A8" mask="url(#mask-2)"></path>
                <path d="M497.744994,325.287444 L533.254754,325.287444 L533.254754,305.712556 L497.744994,305.712556 L497.744994,325.287444 Z M495.069927,329 L535.930073,329 C536.520793,329 537,328.524944 537,327.939341 L537,303.060659 C537,302.475056 536.520793,302 535.930073,302 L495.069927,302 C494.479207,302 494,302.475056 494,303.060659 L494,327.939341 C494,328.524944 494.479207,329 495.069927,329 Z" id="Fill-47" fill="#4545A8" mask="url(#mask-2)"></path>
            </g>
        </g>
    </g>
</svg>